<svg width="128" height="30" viewBox="0 0 128 30" fill="none" xmlns="http://www.w3.org/2000/svg">
<g clip-path="url(#clip0_102_27)">
<path d="M0 26.6953C4.91448 26.6953 8.89841 22.7113 8.89841 17.7969C8.89841 12.8824 4.91448 8.89844 0 8.89844V15.1273C1.47433 15.1273 2.66951 16.3225 2.66951 17.7969C2.66951 19.2712 1.47433 20.4664 0 20.4664V26.6953Z" fill="#726BEA"/>
<path d="M29.6614 11.8646C28.1408 11.3829 26.5215 11.123 24.8414 11.123C16.0363 11.123 8.89844 18.261 8.89844 27.066C8.89844 27.9498 8.97036 28.8168 9.10862 29.6614H19.0145C18.6609 28.8686 18.4643 27.9903 18.4643 27.066C18.4643 23.544 21.3194 20.6888 24.8414 20.6888C26.7664 20.6888 28.4921 21.5417 29.6614 22.8902V11.8646Z" fill="#A5B4FC"/>
<path d="M1.56445 0C2.30219 6.67374 7.96024 11.8646 14.8306 11.8646C21.7009 11.8646 27.359 6.67374 28.0967 0H18.5512C17.9619 1.4773 16.5181 2.52121 14.8306 2.52121C13.143 2.52121 11.6993 1.4773 11.1099 0H1.56445Z" fill="#4F46E5"/>
<path d="M42.0586 23.5733H38.065V5.73525H42.0586V12.8172H46.5048L51.2438 5.73525H56.0362L49.8328 14.5212L55.9563 23.5733H51.164L46.558 16.7043H42.0586V23.5733ZM61.0386 23.5733H57.045V10.2347H60.7457V13.7757H60.9853C61.358 11.6192 62.7691 9.96847 65.4581 9.96847C68.44 9.96847 69.6647 12.0185 69.6647 14.6277V16.8375H65.6711V15.453C65.6711 13.9887 65.0854 13.3497 63.4613 13.3497C61.6775 13.3497 61.0386 14.1751 61.0386 15.8524V23.5733ZM75.1046 8.87688H71.111V5.73525H75.1046V8.87688ZM75.1046 23.5733H71.111V10.2347H75.1046V23.5733ZM83.9308 23.8396C79.4314 23.8396 76.9553 22.0824 76.9553 18.994V18.9141H80.9489V19.1537C80.9489 20.3518 81.6944 20.6713 83.9575 20.6713C86.0874 20.6713 86.5932 20.3252 86.5932 19.5265C86.5932 18.781 86.1939 18.568 84.6231 18.355L80.8691 17.9024C78.2067 17.6096 76.7157 16.4115 76.7157 14.1751C76.7157 11.8321 78.7125 9.96847 83.2919 9.96847C87.6582 9.96847 90.1342 11.6192 90.1342 14.8673V14.9472H86.1406V14.7874C86.1406 13.6958 85.6081 13.1367 83.1587 13.1367C81.1619 13.1367 80.6561 13.4828 80.6561 14.3348C80.6561 15.027 81.0288 15.3199 82.786 15.5329L85.6348 15.879C89.2024 16.2784 90.5336 17.4764 90.5336 19.6862C90.5336 22.1889 88.0576 23.8396 83.9308 23.8396ZM96.1386 23.5733H92.145V5.73525H96.1386V14.3082H96.3516C96.7775 12.0451 98.3484 9.96847 101.756 9.96847C105.35 9.96847 107.108 12.3114 107.108 15.3998V23.5733H103.114V16.5978C103.114 14.3614 102.156 13.5627 99.6529 13.5627C96.9639 13.5627 96.1386 14.6543 96.1386 16.8907V23.5733ZM116.232 23.8396C111.679 23.8396 108.617 21.1239 108.617 16.9173C108.617 12.6575 111.679 9.96847 116.232 9.96847C120.784 9.96847 123.846 12.6575 123.846 16.9173C123.846 21.1239 120.784 23.8396 116.232 23.8396ZM116.232 20.2986C118.921 20.2986 119.879 19.2602 119.879 16.9173C119.879 14.5744 118.921 13.4828 116.232 13.4828C113.516 13.4828 112.584 14.5744 112.584 16.9173C112.584 19.2602 113.516 20.2986 116.232 20.2986Z" fill="#100F14"/>
</g>
<defs>
<clipPath id="clip0_102_27">
<rect width="128" height="30" fill="white"/>
</clipPath>
</defs>
</svg>
